<svg width="22" height="20" viewBox="0 0 22 20" fill="none" xmlns="http://www.w3.org/2000/svg">
<path d="M20.7645 19.2156C21.3041 19.6927 22.1369 18.9563 21.5973 18.4896L17.1985 14.5899C18.7415 13.0804 19.5944 11.1174 19.5914 9.08265C19.5914 4.52956 15.4037 0.826927 10.2541 0.826927C5.10448 0.826927 0.916748 4.52956 0.916748 9.08265C0.916748 13.6358 5.10448 17.3384 10.2541 17.3384C12.5767 17.3384 14.7234 16.5813 16.3656 15.3263L20.7645 19.2156ZM2.08861 9.08265C2.08861 5.09999 5.7602 1.86408 10.2529 1.86408C14.7574 1.86408 18.4172 5.09999 18.4172 9.08265C18.4172 13.0653 14.7574 16.3012 10.2529 16.3012C5.7602 16.3012 2.08861 13.0653 2.08861 9.08265Z" fill="black"/>
</svg>
